HIERARCHY
ROOT Hips
{
	OFFSET 0.000000 0.000000 0.000000
	CHANNELS 6 Xposition Yposition Zposition Zrotation Yrotation Xrotation 
	JOINT LHipJoint
	{
		OFFSET 0.000000 0.000000 0.000000
		CHANNELS 3 Zrotation Yrotation Xrotation
		JOINT LeftUpLeg
		{
			OFFSET 1.363060 -1.794630 0.839290
			CHANNELS 3 Zrotation Yrotation Xrotation
			JOINT LeftLeg
			{
				OFFSET 2.448110 -6.726130 0.000000
				CHANNELS 3 Zrotation Yrotation Xrotation
				JOINT LeftFoot
				{
					OFFSET 2.562200 -7.039590 0.000000
					CHANNELS 3 Zrotation Yrotation Xrotation
					JOINT LeftToeBase
					{
						OFFSET 0.157640 -0.433110 2.322550
						CHANNELS 3 Zrotation Yrotation Xrotation
						End Site
						{
							OFFSET 0.000000 0.000000 0.000000
						}
					}
				}
			}
		}
	}
	JOINT RHipJoint
	{
		OFFSET 0.000000 0.000000 0.000000
		CHANNELS 3 Zrotation Yrotation Xrotation
		JOINT RightUpLeg
		{
			OFFSET -1.305520 -1.794630 0.839290
			CHANNELS 3 Zrotation Yrotation Xrotation
			JOINT RightLeg
			{
				OFFSET -2.542530 -6.985550 0.000000
				CHANNELS 3 Zrotation Yrotation Xrotation
				JOINT RightFoot
				{
					OFFSET -2.568260 -7.056230 0.000000
					CHANNELS 3 Zrotation Yrotation Xrotation
					JOINT RightToeBase
					{
						OFFSET -0.164730 -0.452590 2.363150
						CHANNELS 3 Zrotation Yrotation Xrotation
						End Site
						{
							OFFSET 0.000000 0.000000 0.000000
						}
					}
				}
			}
		}
	}
	JOINT LowerBack
	{
		OFFSET 0.000000 0.000000 0.000000
		CHANNELS 3 Zrotation Yrotation Xrotation
		JOINT Spine
		{
			OFFSET 0.028270 2.035590 -0.193380
			CHANNELS 3 Zrotation Yrotation Xrotation
			JOINT Spine1
			{
				OFFSET 0.056720 2.048850 -0.042750
				CHANNELS 3 Zrotation Yrotation Xrotation
				JOINT Neck
				{
					OFFSET 0.000000 0.000000 0.000000
					CHANNELS 3 Zrotation Yrotation Xrotation
					JOINT Neck1
					{
						OFFSET -0.054170 1.746240 0.172020
						CHANNELS 3 Zrotation Yrotation Xrotation
						JOINT Head
						{
							OFFSET 0.104070 1.761360 -0.123970
							CHANNELS 3 Zrotation Yrotation Xrotation
							End Site
							{
								OFFSET 0.000000 0.000000 0.000000
							}
						}
					}
				}
				JOINT LeftShoulder
				{
					OFFSET 0.000000 0.000000 0.000000
					CHANNELS 3 Zrotation Yrotation Xrotation
					JOINT LeftArm
					{
						OFFSET 3.362410 1.200890 -0.311210
						CHANNELS 3 Zrotation Yrotation Xrotation
						JOINT LeftForeArm
						{
							OFFSET 4.983000 -0.000000 -0.000000
							CHANNELS 3 Zrotation Yrotation Xrotation
							JOINT LeftHand
							{
								OFFSET 3.483560 -0.000000 -0.000000
								CHANNELS 3 Zrotation Yrotation Xrotation
								JOINT LeftFingerBase
								{
									OFFSET 0.000000 0.000000 0.000000
									CHANNELS 3 Zrotation Yrotation Xrotation
									JOINT LeftHandIndex1
									{
										OFFSET 0.715260 -0.000000 -0.000000
										CHANNELS 3 Zrotation Yrotation Xrotation
										End Site
										{
											OFFSET 0.000000 0.000000 0.000000
										}
									}
								}
								JOINT LThumb
								{
									OFFSET 0.000000 0.000000 0.000000
									CHANNELS 3 Zrotation Yrotation Xrotation
									End Site
									{
										OFFSET 0.000000 0.000000 0.000000
									}
								}
							}
						}
					}
				}
				JOINT RightShoulder
				{
					OFFSET 0.000000 0.000000 0.000000
					CHANNELS 3 Zrotation Yrotation Xrotation
					JOINT RightArm
					{
						OFFSET -3.136600 1.374050 -0.404650
						CHANNELS 3 Zrotation Yrotation Xrotation
						JOINT RightForeArm
						{
							OFFSET -5.241900 -0.000000 -0.000000
							CHANNELS 3 Zrotation Yrotation Xrotation
							JOINT RightHand
							{
								OFFSET -3.444170 -0.000000 -0.000000
								CHANNELS 3 Zrotation Yrotation Xrotation
								JOINT RightFingerBase
								{
									OFFSET 0.000000 0.000000 0.000000
									CHANNELS 3 Zrotation Yrotation Xrotation
									JOINT RightHandIndex1
									{
										OFFSET -0.622530 -0.000000 -0.000000
										CHANNELS 3 Zrotation Yrotation Xrotation
										End Site
										{
											OFFSET 0.000000 0.000000 0.000000
										}
									}
								}
								JOINT RThumb
								{
									OFFSET 0.000000 0.000000 0.000000
									CHANNELS 3 Zrotation Yrotation Xrotation
									End Site
									{
										OFFSET 0.000000 0.000000 0.000000
									}
								}
							}
						}
					}
				}
			}
		}
	}
}
MOTION
Frames: 5
Frame Time: 0.008333
5.832123 17.391975 -6.308182 179.588167 -87.547095 176.430861 4.076454 0.902084 -1.542623 -19.632516 8.912462 2.561785 0.399988 3.735888 11.387141 -2.787215 15.880708 -10.239482 0.019700 -0.905900 -2.489900 -3.153088 -0.685554 -0.563835 14.837159 5.635732 -1.553099 -1.695116 -9.067131 26.469186 0.405207 -10.200035 -22.972162 -0.031800 -1.151000 3.164400 2.049819 -0.371161 2.704448 1.163361 -0.282211 -0.586188 -2.019786 -0.187914 3.416576 -0.100130 0.355370 -4.135995 5.271325 -0.545190 1.555499 -0.612700 -0.435300 -0.983500 -6.448095 -5.284283 1.971325 -50.875374 -7.172093 9.359503 22.871515 -33.377574 -10.171022 -1.144765 -1.926245 -29.400032 24.095331 14.085248 7.240600 -7.125000 0.000000 0.000000 -1.475300 46.657800 -0.060400 8.857691 4.378244 1.329287 46.423248 0.939985 15.459206 -23.369678 35.122562 -10.094068 1.210427 0.639238 -6.362092 -23.583429 -7.215966 3.545700 7.125000 0.000000 0.000000 1.695600 -38.434700 0.274300 
5.830579 17.390740 -6.302931 177.537204 -87.516250 178.522702 4.086136 0.908814 -1.538926 -19.800424 8.755963 2.632324 0.394420 3.708568 11.302621 -2.835048 16.100307 -10.335517 0.020400 -0.923300 -2.537700 -3.150297 -0.668489 -0.561909 14.865189 6.152653 -1.497500 -1.699931 -9.087202 26.515792 0.332864 -9.807516 -22.820352 -0.013600 -0.752600 2.068200 1.925811 -0.363730 2.684269 1.151457 -0.270377 -0.591365 -2.019014 -0.180370 3.389502 -0.092766 0.374436 -4.126068 5.309311 -0.527105 1.451170 -0.598600 -0.433600 -1.035100 -6.385393 -5.283549 1.963266 -51.535270 -7.144906 9.633735 23.364727 -33.797755 -10.438628 -1.111638 -1.877779 -29.176870 23.845430 13.977349 7.088900 -7.125000 0.000000 0.000000 -1.747500 46.484400 -0.064000 8.792613 4.373587 1.326583 46.900731 1.028119 15.929773 -23.703066 35.402222 -10.255206 1.183421 0.636912 -6.772579 -23.307509 -7.171387 3.474000 7.125000 0.000000 0.000000 1.949000 -38.356400 0.319000 
5.826461 17.392078 -6.302210 178.768123 -87.478620 177.287690 4.082901 0.897389 -1.545713 -19.783951 8.552680 2.769194 0.395941 3.694061 11.273776 -2.876376 16.314128 -10.559993 0.018900 -0.888700 -2.442700 -3.164836 -0.663712 -0.556017 15.106024 6.737872 -1.331654 -1.703890 -9.115977 26.577315 0.242720 -9.370614 -22.732912 -0.008500 -0.593900 1.632100 1.908585 -0.363506 2.674904 1.159263 -0.271082 -0.585498 -1.990446 -0.180942 3.395103 -0.128619 0.402252 -4.124206 5.359373 -0.496301 1.340326 -0.568100 -0.425100 -1.089000 -6.320488 -5.282194 1.956488 -52.244682 -7.083728 9.958270 23.842499 -34.210599 -10.700643 -1.082399 -1.835576 -28.939213 23.655736 13.965424 7.003900 -7.125000 0.000000 0.000000 -1.971300 46.427400 -0.069500 8.732521 4.360449 1.323668 47.401203 1.125994 16.496253 -24.024062 35.675458 -10.409690 1.174041 0.658385 -7.115558 -23.135338 -7.615896 3.650200 7.125000 0.000000 0.000000 2.139400 -38.842600 0.324700 
5.825020 17.391872 -6.296136 178.819301 -87.517435 177.232010 4.089078 0.892243 -1.547182 -19.857450 8.290944 2.869729 0.400624 3.708466 11.319673 -2.899771 16.461666 -10.810777 0.016200 -0.822600 -2.260800 -3.170338 -0.658531 -0.552355 15.220028 7.117743 -1.199100 -1.707982 -9.132744 26.617310 0.162935 -8.969694 -22.634383 -0.005400 -0.474900 1.304900 1.918737 -0.383604 2.708551 1.155601 -0.295965 -0.587739 -2.031985 -0.190474 3.358580 -0.142557 0.425691 -4.127576 5.406046 -0.470009 1.233866 -0.540100 -0.418600 -1.135500 -6.261455 -5.282982 1.947018 -52.986976 -7.024476 10.302671 24.231293 -34.533936 -10.892717 -1.048611 -1.772681 -28.523365 23.267050 13.706160 6.739700 -7.125000 0.000000 0.000000 -2.357000 46.065500 -0.062000 8.667432 4.355900 1.320298 47.951636 1.184711 16.990546 -24.269402 35.880714 -10.514771 1.151466 0.649205 -7.482628 -22.905462 -7.533489 3.565700 7.125000 0.000000 0.000000 2.347000 -38.719400 0.363300 
5.822034 17.391255 -6.294180 -179.925548 -87.548650 175.963207 4.088663 0.879974 -1.552407 -19.842702 8.090191 2.895729 0.414039 3.755730 11.457569 -2.922111 16.595182 -11.001345 0.015900 -0.813600 -2.235900 -3.182120 -0.655934 -0.547855 15.439208 7.599967 -0.987823 -1.703243 -9.137178 26.615669 0.126584 -8.760506 -22.540816 -0.007900 -0.572900 1.574300 1.927460 -0.410613 2.718130 1.162945 -0.332222 -0.581508 -2.033412 -0.207662 3.364325 -0.142984 0.447146 -4.149800 5.439151 -0.446460 1.150017 -0.525800 -0.412900 -1.169600 -6.205632 -5.283127 1.937591 -53.719948 -6.957874 10.682532 24.526429 -34.788464 -11.033153 -1.032285 -1.719062 -28.072144 23.117523 13.566293 6.609000 -7.125000 0.000000 0.000000 -2.516600 45.865300 -0.053800 8.617116 4.349660 1.317580 48.476649 1.342593 17.615559 -24.365777 35.960042 -10.519915 1.142752 0.656898 -7.892743 -22.712199 -7.748622 3.626400 7.125000 0.000000 0.000000 2.537200 -38.937000 0.379300 
